<?xml version="1.0" encoding="UTF-8" standalone="no"?>
<!DOCTYPE svg PUBLIC "-//W3C//DTD SVG 1.1//EN"
 "http://www.w3.org/Graphics/SVG/1.1/DTD/svg11.dtd">
<!-- Generated by graphviz version 2.30.1 (20180828.1746)
 -->
<!-- Title: %3 Pages: 1 -->
<svg width="1368pt" height="260pt"
 viewBox="0.00 0.00 1368.00 260.00" xmlns="http://www.w3.org/2000/svg" xmlns:xlink="http://www.w3.org/1999/xlink">
<g id="graph0" class="graph" transform="scale(1 1) rotate(0) translate(4 256)">
<title>%3</title>
<polygon fill="white" stroke="white" points="-4,5 -4,-256 1365,-256 1365,5 -4,5"/>
<!-- [root] aws_instance.us_east_frontend (expand) -->
<g id="node1" class="node"><title>[root] aws_instance.us_east_frontend (expand)</title>
<polygon fill="none" stroke="black" points="469.25,-108 286.75,-108 286.75,-72 469.25,-72 469.25,-108"/>
<text text-anchor="middle" x="378" y="-86.3" font-family="Times,serif" font-size="14.00">aws_instance.us_east_frontend</text>
</g>
<!-- [root] provider[&quot;registry.terraform.io/hashicorp/aws&quot;] -->
<g id="node3" class="node"><title>[root] provider[&quot;registry.terraform.io/hashicorp/aws&quot;]</title>
<polygon fill="none" stroke="black" points="378,-36 127.984,-18 378,-3.55271e-15 628.016,-18 378,-36"/>
<text text-anchor="middle" x="378" y="-14.3" font-family="Times,serif" font-size="14.00">provider[&quot;registry.terraform.io/hashicorp/aws&quot;]</text>
</g>
<!-- [root] aws_instance.us_east_frontend (expand)&#45;&gt;[root] provider[&quot;registry.terraform.io/hashicorp/aws&quot;] -->
<g id="edge1" class="edge"><title>[root] aws_instance.us_east_frontend (expand)&#45;&gt;[root] provider[&quot;registry.terraform.io/hashicorp/aws&quot;]</title>
<path fill="none" stroke="black" d="M378,-71.6966C378,-63.9827 378,-54.7125 378,-46.1124"/>
<polygon fill="black" stroke="black" points="381.5,-46.1043 378,-36.1043 374.5,-46.1044 381.5,-46.1043"/>
</g>
<!-- [root] aws_instance.us_west_frontend (expand) -->
<g id="node2" class="node"><title>[root] aws_instance.us_west_frontend (expand)</title>
<polygon fill="none" stroke="black" points="1116,-108 930,-108 930,-72 1116,-72 1116,-108"/>
<text text-anchor="middle" x="1023" y="-86.3" font-family="Times,serif" font-size="14.00">aws_instance.us_west_frontend</text>
</g>
<!-- [root] provider[&quot;registry.terraform.io/hashicorp/aws&quot;].us&#45;west&#45;2 -->
<g id="node4" class="node"><title>[root] provider[&quot;registry.terraform.io/hashicorp/aws&quot;].us&#45;west&#45;2</title>
<polygon fill="none" stroke="black" points="1023,-36 722.653,-18 1023,-3.55271e-15 1323.35,-18 1023,-36"/>
<text text-anchor="middle" x="1023" y="-14.3" font-family="Times,serif" font-size="14.00">provider[&quot;registry.terraform.io/hashicorp/aws&quot;].us&#45;west&#45;2</text>
</g>
<!-- [root] aws_instance.us_west_frontend (expand)&#45;&gt;[root] provider[&quot;registry.terraform.io/hashicorp/aws&quot;].us&#45;west&#45;2 -->
<g id="edge2" class="edge"><title>[root] aws_instance.us_west_frontend (expand)&#45;&gt;[root] provider[&quot;registry.terraform.io/hashicorp/aws&quot;].us&#45;west&#45;2</title>
<path fill="none" stroke="black" d="M1023,-71.6966C1023,-63.9827 1023,-54.7125 1023,-46.1124"/>
<polygon fill="black" stroke="black" points="1026.5,-46.1043 1023,-36.1043 1019.5,-46.1044 1026.5,-46.1043"/>
</g>
<!-- [root] meta.count&#45;boundary (EachMode fixup) -->
<g id="node5" class="node"><title>[root] meta.count&#45;boundary (EachMode fixup)</title>
<ellipse fill="none" stroke="black" cx="645" cy="-162" rx="176.202" ry="18"/>
<text text-anchor="middle" x="645" y="-158.3" font-family="Times,serif" font-size="14.00">[root] meta.count&#45;boundary (EachMode fixup)</text>
</g>
<!-- [root] meta.count&#45;boundary (EachMode fixup)&#45;&gt;[root] aws_instance.us_east_frontend (expand) -->
<g id="edge3" class="edge"><title>[root] meta.count&#45;boundary (EachMode fixup)&#45;&gt;[root] aws_instance.us_east_frontend (expand)</title>
<path fill="none" stroke="black" d="M584.079,-145.028C545.038,-134.793 494.098,-121.438 452.632,-110.566"/>
<polygon fill="black" stroke="black" points="453.414,-107.153 442.853,-108.003 451.638,-113.924 453.414,-107.153"/>
</g>
<!-- [root] meta.count&#45;boundary (EachMode fixup)&#45;&gt;[root] aws_instance.us_west_frontend (expand) -->
<g id="edge4" class="edge"><title>[root] meta.count&#45;boundary (EachMode fixup)&#45;&gt;[root] aws_instance.us_west_frontend (expand)</title>
<path fill="none" stroke="black" d="M726.09,-145.983C783.114,-135.423 859.847,-121.213 921.021,-109.885"/>
<polygon fill="black" stroke="black" points="921.891,-113.283 931.087,-108.021 920.617,-106.4 921.891,-113.283"/>
</g>
<!-- [root] provider[&quot;registry.terraform.io/hashicorp/aws&quot;] (close) -->
<g id="node6" class="node"><title>[root] provider[&quot;registry.terraform.io/hashicorp/aws&quot;] (close)</title>
<ellipse fill="none" stroke="black" cx="225" cy="-162" rx="225.295" ry="18"/>
<text text-anchor="middle" x="225" y="-158.3" font-family="Times,serif" font-size="14.00">[root] provider[&quot;registry.terraform.io/hashicorp/aws&quot;] (close)</text>
</g>
<!-- [root] provider[&quot;registry.terraform.io/hashicorp/aws&quot;] (close)&#45;&gt;[root] aws_instance.us_east_frontend (expand) -->
<g id="edge5" class="edge"><title>[root] provider[&quot;registry.terraform.io/hashicorp/aws&quot;] (close)&#45;&gt;[root] aws_instance.us_east_frontend (expand)</title>
<path fill="none" stroke="black" d="M261.647,-144.233C282.533,-134.678 308.918,-122.606 331.279,-112.375"/>
<polygon fill="black" stroke="black" points="332.952,-115.459 340.589,-108.116 330.039,-109.094 332.952,-115.459"/>
</g>
<!-- [root] provider[&quot;registry.terraform.io/hashicorp/aws&quot;].us&#45;west&#45;2 (close) -->
<g id="node7" class="node"><title>[root] provider[&quot;registry.terraform.io/hashicorp/aws&quot;].us&#45;west&#45;2 (close)</title>
<ellipse fill="none" stroke="black" cx="1100" cy="-162" rx="260.44" ry="18"/>
<text text-anchor="middle" x="1100" y="-158.3" font-family="Times,serif" font-size="14.00">[root] provider[&quot;registry.terraform.io/hashicorp/aws&quot;].us&#45;west&#45;2 (close)</text>
</g>
<!-- [root] provider[&quot;registry.terraform.io/hashicorp/aws&quot;].us&#45;west&#45;2 (close)&#45;&gt;[root] aws_instance.us_west_frontend (expand) -->
<g id="edge6" class="edge"><title>[root] provider[&quot;registry.terraform.io/hashicorp/aws&quot;].us&#45;west&#45;2 (close)&#45;&gt;[root] aws_instance.us_west_frontend (expand)</title>
<path fill="none" stroke="black" d="M1080.97,-143.697C1071.46,-135.05 1059.79,-124.449 1049.43,-115.027"/>
<polygon fill="black" stroke="black" points="1051.57,-112.241 1041.81,-108.104 1046.86,-117.421 1051.57,-112.241"/>
</g>
<!-- [root] root -->
<g id="node8" class="node"><title>[root] root</title>
<ellipse fill="none" stroke="black" cx="645" cy="-234" rx="47.169" ry="18"/>
<text text-anchor="middle" x="645" y="-230.3" font-family="Times,serif" font-size="14.00">[root] root</text>
</g>
<!-- [root] root&#45;&gt;[root] meta.count&#45;boundary (EachMode fixup) -->
<g id="edge7" class="edge"><title>[root] root&#45;&gt;[root] meta.count&#45;boundary (EachMode fixup)</title>
<path fill="none" stroke="black" d="M645,-215.697C645,-207.983 645,-198.712 645,-190.112"/>
<polygon fill="black" stroke="black" points="648.5,-190.104 645,-180.104 641.5,-190.104 648.5,-190.104"/>
</g>
<!-- [root] root&#45;&gt;[root] provider[&quot;registry.terraform.io/hashicorp/aws&quot;] (close) -->
<g id="edge8" class="edge"><title>[root] root&#45;&gt;[root] provider[&quot;registry.terraform.io/hashicorp/aws&quot;] (close)</title>
<path fill="none" stroke="black" d="M602.417,-225.903C538.459,-215.243 415.71,-194.785 327.547,-180.091"/>
<polygon fill="black" stroke="black" points="327.952,-176.611 317.513,-178.419 326.801,-183.515 327.952,-176.611"/>
</g>
<!-- [root] root&#45;&gt;[root] provider[&quot;registry.terraform.io/hashicorp/aws&quot;].us&#45;west&#45;2 (close) -->
<g id="edge9" class="edge"><title>[root] root&#45;&gt;[root] provider[&quot;registry.terraform.io/hashicorp/aws&quot;].us&#45;west&#45;2 (close)</title>
<path fill="none" stroke="black" d="M688.215,-226.351C756.453,-215.853 891.337,-195.102 988.153,-180.207"/>
<polygon fill="black" stroke="black" points="988.932,-183.629 998.284,-178.649 987.868,-176.71 988.932,-183.629"/>
</g>
</g>
</svg>
